<mxfile host="app.diagrams.net" agent="Mozilla/5.0 (Windows NT 10.0; Win64; x64) AppleWebKit/537.36 (KHTML, like Gecko) Chrome/132.0.0.0 Safari/537.36" version="26.0.10">
  <diagram name="Página-1" id="raROPL-AR90-nA5Fcj93">
    <mxGraphModel dx="478" dy="1418" grid="1" gridSize="10" guides="1" tooltips="1" connect="1" arrows="1" fold="1" page="1" pageScale="1" pageWidth="827" pageHeight="1169" math="0" shadow="0">
      <root>
        <mxCell id="0" />
        <mxCell id="1" parent="0" />
        <mxCell id="iQFdlbuYNqTvTdsV16da-6" value="Local" style="swimlane;fontStyle=1;align=center;verticalAlign=top;childLayout=stackLayout;horizontal=1;startSize=26;horizontalStack=0;resizeParent=1;resizeParentMax=0;resizeLast=0;collapsible=1;marginBottom=0;whiteSpace=wrap;html=1;" vertex="1" parent="1">
          <mxGeometry x="630" y="440" width="170" height="130" as="geometry" />
        </mxCell>
        <mxCell id="iQFdlbuYNqTvTdsV16da-7" value="- id: int&lt;div&gt;- cidade: string&lt;/div&gt;&lt;div&gt;- irradiação: float&lt;/div&gt;" style="text;strokeColor=none;fillColor=none;align=left;verticalAlign=top;spacingLeft=4;spacingRight=4;overflow=hidden;rotatable=0;points=[[0,0.5],[1,0.5]];portConstraint=eastwest;whiteSpace=wrap;html=1;" vertex="1" parent="iQFdlbuYNqTvTdsV16da-6">
          <mxGeometry y="26" width="170" height="54" as="geometry" />
        </mxCell>
        <mxCell id="iQFdlbuYNqTvTdsV16da-8" value="" style="line;strokeWidth=1;fillColor=none;align=left;verticalAlign=middle;spacingTop=-1;spacingLeft=3;spacingRight=3;rotatable=0;labelPosition=right;points=[];portConstraint=eastwest;strokeColor=inherit;" vertex="1" parent="iQFdlbuYNqTvTdsV16da-6">
          <mxGeometry y="80" width="170" height="8" as="geometry" />
        </mxCell>
        <mxCell id="iQFdlbuYNqTvTdsV16da-9" value="+ Local(id: int, cidade: string, irradiação: float)" style="text;strokeColor=none;fillColor=none;align=left;verticalAlign=top;spacingLeft=4;spacingRight=4;overflow=hidden;rotatable=0;points=[[0,0.5],[1,0.5]];portConstraint=eastwest;whiteSpace=wrap;html=1;" vertex="1" parent="iQFdlbuYNqTvTdsV16da-6">
          <mxGeometry y="88" width="170" height="42" as="geometry" />
        </mxCell>
        <mxCell id="iQFdlbuYNqTvTdsV16da-11" value="&amp;lt;&amp;lt;static&amp;gt;&amp;gt;&lt;div&gt;Modelo JSON&lt;/div&gt;" style="swimlane;fontStyle=1;align=center;verticalAlign=top;childLayout=stackLayout;horizontal=1;startSize=40;horizontalStack=0;resizeParent=1;resizeParentMax=0;resizeLast=0;collapsible=1;marginBottom=0;whiteSpace=wrap;html=1;" vertex="1" parent="1">
          <mxGeometry x="350" y="-20" width="170" height="180" as="geometry" />
        </mxCell>
        <mxCell id="iQFdlbuYNqTvTdsV16da-12" value="&amp;nbsp;-obj: list" style="text;strokeColor=none;fillColor=none;align=left;verticalAlign=top;spacingLeft=4;spacingRight=4;overflow=hidden;rotatable=0;points=[[0,0.5],[1,0.5]];portConstraint=eastwest;whiteSpace=wrap;html=1;" vertex="1" parent="iQFdlbuYNqTvTdsV16da-11">
          <mxGeometry y="40" width="170" height="20" as="geometry" />
        </mxCell>
        <mxCell id="iQFdlbuYNqTvTdsV16da-13" value="" style="line;strokeWidth=1;fillColor=none;align=left;verticalAlign=middle;spacingTop=-1;spacingLeft=3;spacingRight=3;rotatable=0;labelPosition=right;points=[];portConstraint=eastwest;strokeColor=inherit;" vertex="1" parent="iQFdlbuYNqTvTdsV16da-11">
          <mxGeometry y="60" width="170" height="10" as="geometry" />
        </mxCell>
        <mxCell id="iQFdlbuYNqTvTdsV16da-14" value="+ inserir()&lt;div&gt;+ listar()&lt;/div&gt;&lt;div&gt;+ buscar_id()&lt;/div&gt;&lt;div&gt;+ atualizar()&lt;/div&gt;&lt;div&gt;+ excluir()&lt;/div&gt;&lt;div&gt;+ abrir()&lt;/div&gt;&lt;div&gt;+ salvar()&lt;/div&gt;&lt;div&gt;&lt;br&gt;&lt;/div&gt;" style="text;strokeColor=none;fillColor=none;align=left;verticalAlign=top;spacingLeft=4;spacingRight=4;overflow=hidden;rotatable=0;points=[[0,0.5],[1,0.5]];portConstraint=eastwest;whiteSpace=wrap;html=1;" vertex="1" parent="iQFdlbuYNqTvTdsV16da-11">
          <mxGeometry y="70" width="170" height="110" as="geometry" />
        </mxCell>
        <mxCell id="iQFdlbuYNqTvTdsV16da-23" style="rounded=0;orthogonalLoop=1;jettySize=auto;html=1;exitX=0;exitY=0;exitDx=0;exitDy=0;entryX=0.995;entryY=1;entryDx=0;entryDy=0;entryPerimeter=0;" edge="1" parent="1" source="iQFdlbuYNqTvTdsV16da-19" target="iQFdlbuYNqTvTdsV16da-14">
          <mxGeometry relative="1" as="geometry">
            <mxPoint x="510" y="190" as="targetPoint" />
          </mxGeometry>
        </mxCell>
        <mxCell id="iQFdlbuYNqTvTdsV16da-19" value="&amp;lt;&amp;lt;static&amp;gt;&amp;gt;&lt;div&gt;Locais&lt;/div&gt;" style="swimlane;fontStyle=1;align=center;verticalAlign=top;childLayout=stackLayout;horizontal=1;startSize=40;horizontalStack=0;resizeParent=1;resizeParentMax=0;resizeLast=0;collapsible=1;marginBottom=0;whiteSpace=wrap;html=1;" vertex="1" parent="1">
          <mxGeometry x="590" y="200" width="170" height="100" as="geometry" />
        </mxCell>
        <mxCell id="iQFdlbuYNqTvTdsV16da-22" value="&lt;div&gt;+ abrir()&lt;/div&gt;&lt;div&gt;&lt;br&gt;&lt;/div&gt;&lt;div&gt;+ salvar()&lt;/div&gt;&lt;div&gt;&lt;br&gt;&lt;/div&gt;" style="text;strokeColor=none;fillColor=none;align=left;verticalAlign=top;spacingLeft=4;spacingRight=4;overflow=hidden;rotatable=0;points=[[0,0.5],[1,0.5]];portConstraint=eastwest;whiteSpace=wrap;html=1;" vertex="1" parent="iQFdlbuYNqTvTdsV16da-19">
          <mxGeometry y="40" width="170" height="60" as="geometry" />
        </mxCell>
        <mxCell id="iQFdlbuYNqTvTdsV16da-24" value="Produto" style="swimlane;fontStyle=1;align=center;verticalAlign=top;childLayout=stackLayout;horizontal=1;startSize=26;horizontalStack=0;resizeParent=1;resizeParentMax=0;resizeLast=0;collapsible=1;marginBottom=0;whiteSpace=wrap;html=1;" vertex="1" parent="1">
          <mxGeometry x="630" y="600" width="170" height="190" as="geometry" />
        </mxCell>
        <mxCell id="iQFdlbuYNqTvTdsV16da-25" value="- id: int&lt;div&gt;- tipo: string&lt;/div&gt;&lt;div&gt;- valor: float&lt;/div&gt;&lt;div&gt;- estoque: int&lt;/div&gt;&lt;div&gt;- marca: string&lt;/div&gt;&lt;div&gt;- potencia: int&lt;/div&gt;" style="text;strokeColor=none;fillColor=none;align=left;verticalAlign=top;spacingLeft=4;spacingRight=4;overflow=hidden;rotatable=0;points=[[0,0.5],[1,0.5]];portConstraint=eastwest;whiteSpace=wrap;html=1;" vertex="1" parent="iQFdlbuYNqTvTdsV16da-24">
          <mxGeometry y="26" width="170" height="94" as="geometry" />
        </mxCell>
        <mxCell id="iQFdlbuYNqTvTdsV16da-26" value="" style="line;strokeWidth=1;fillColor=none;align=left;verticalAlign=middle;spacingTop=-1;spacingLeft=3;spacingRight=3;rotatable=0;labelPosition=right;points=[];portConstraint=eastwest;strokeColor=inherit;" vertex="1" parent="iQFdlbuYNqTvTdsV16da-24">
          <mxGeometry y="120" width="170" height="8" as="geometry" />
        </mxCell>
        <mxCell id="iQFdlbuYNqTvTdsV16da-27" value="+ Produto(id: int, tipo: string, valor: float, estoque: int, marca: string, potencia: int)" style="text;strokeColor=none;fillColor=none;align=left;verticalAlign=top;spacingLeft=4;spacingRight=4;overflow=hidden;rotatable=0;points=[[0,0.5],[1,0.5]];portConstraint=eastwest;whiteSpace=wrap;html=1;" vertex="1" parent="iQFdlbuYNqTvTdsV16da-24">
          <mxGeometry y="128" width="170" height="62" as="geometry" />
        </mxCell>
        <mxCell id="iQFdlbuYNqTvTdsV16da-28" value="&amp;lt;&amp;lt;static&amp;gt;&amp;gt;&lt;div&gt;Produtos&lt;/div&gt;" style="swimlane;fontStyle=1;align=center;verticalAlign=top;childLayout=stackLayout;horizontal=1;startSize=40;horizontalStack=0;resizeParent=1;resizeParentMax=0;resizeLast=0;collapsible=1;marginBottom=0;whiteSpace=wrap;html=1;" vertex="1" parent="1">
          <mxGeometry x="600" y="-140" width="170" height="100" as="geometry" />
        </mxCell>
        <mxCell id="iQFdlbuYNqTvTdsV16da-29" value="&lt;div&gt;+ abrir()&lt;/div&gt;&lt;div&gt;&lt;br&gt;&lt;/div&gt;&lt;div&gt;+ salvar()&lt;/div&gt;&lt;div&gt;&lt;br&gt;&lt;/div&gt;" style="text;strokeColor=none;fillColor=none;align=left;verticalAlign=top;spacingLeft=4;spacingRight=4;overflow=hidden;rotatable=0;points=[[0,0.5],[1,0.5]];portConstraint=eastwest;whiteSpace=wrap;html=1;" vertex="1" parent="iQFdlbuYNqTvTdsV16da-28">
          <mxGeometry y="40" width="170" height="60" as="geometry" />
        </mxCell>
        <mxCell id="iQFdlbuYNqTvTdsV16da-30" style="rounded=0;orthogonalLoop=1;jettySize=auto;html=1;exitX=0.003;exitY=0.994;exitDx=0;exitDy=0;entryX=1;entryY=0;entryDx=0;entryDy=0;exitPerimeter=0;" edge="1" parent="1" source="iQFdlbuYNqTvTdsV16da-29" target="iQFdlbuYNqTvTdsV16da-11">
          <mxGeometry relative="1" as="geometry">
            <mxPoint x="529.9999999999998" y="-20" as="targetPoint" />
          </mxGeometry>
        </mxCell>
        <mxCell id="iQFdlbuYNqTvTdsV16da-31" value="Item" style="swimlane;fontStyle=1;align=center;verticalAlign=top;childLayout=stackLayout;horizontal=1;startSize=26;horizontalStack=0;resizeParent=1;resizeParentMax=0;resizeLast=0;collapsible=1;marginBottom=0;whiteSpace=wrap;html=1;" vertex="1" parent="1">
          <mxGeometry x="400" y="600" width="170" height="160" as="geometry" />
        </mxCell>
        <mxCell id="iQFdlbuYNqTvTdsV16da-32" value="- id: int&lt;div&gt;- id_Produto&lt;span style=&quot;background-color: transparent; color: light-dark(rgb(0, 0, 0), rgb(255, 255, 255));&quot;&gt;: int&lt;/span&gt;&lt;/div&gt;&lt;div&gt;&lt;span style=&quot;background-color: transparent; color: light-dark(rgb(0, 0, 0), rgb(255, 255, 255));&quot;&gt;- id_Kit: int&lt;/span&gt;&lt;/div&gt;&lt;div&gt;- quantidade_Produto: int&lt;/div&gt;&lt;div&gt;&lt;br&gt;&lt;/div&gt;" style="text;strokeColor=none;fillColor=none;align=left;verticalAlign=top;spacingLeft=4;spacingRight=4;overflow=hidden;rotatable=0;points=[[0,0.5],[1,0.5]];portConstraint=eastwest;whiteSpace=wrap;html=1;" vertex="1" parent="iQFdlbuYNqTvTdsV16da-31">
          <mxGeometry y="26" width="170" height="64" as="geometry" />
        </mxCell>
        <mxCell id="iQFdlbuYNqTvTdsV16da-33" value="" style="line;strokeWidth=1;fillColor=none;align=left;verticalAlign=middle;spacingTop=-1;spacingLeft=3;spacingRight=3;rotatable=0;labelPosition=right;points=[];portConstraint=eastwest;strokeColor=inherit;" vertex="1" parent="iQFdlbuYNqTvTdsV16da-31">
          <mxGeometry y="90" width="170" height="8" as="geometry" />
        </mxCell>
        <mxCell id="iQFdlbuYNqTvTdsV16da-34" value="+ Item(id: int, id_Produto: int, id_kit: int, quantidade_Produto: int)" style="text;strokeColor=none;fillColor=none;align=left;verticalAlign=top;spacingLeft=4;spacingRight=4;overflow=hidden;rotatable=0;points=[[0,0.5],[1,0.5]];portConstraint=eastwest;whiteSpace=wrap;html=1;" vertex="1" parent="iQFdlbuYNqTvTdsV16da-31">
          <mxGeometry y="98" width="170" height="62" as="geometry" />
        </mxCell>
        <mxCell id="iQFdlbuYNqTvTdsV16da-37" style="edgeStyle=orthogonalEdgeStyle;rounded=0;orthogonalLoop=1;jettySize=auto;html=1;exitX=0.5;exitY=1;exitDx=0;exitDy=0;" edge="1" parent="1" source="iQFdlbuYNqTvTdsV16da-35" target="iQFdlbuYNqTvTdsV16da-11">
          <mxGeometry relative="1" as="geometry" />
        </mxCell>
        <mxCell id="iQFdlbuYNqTvTdsV16da-35" value="&amp;lt;&amp;lt;static&amp;gt;&amp;gt;&lt;div&gt;Itens&lt;/div&gt;" style="swimlane;fontStyle=1;align=center;verticalAlign=top;childLayout=stackLayout;horizontal=1;startSize=40;horizontalStack=0;resizeParent=1;resizeParentMax=0;resizeLast=0;collapsible=1;marginBottom=0;whiteSpace=wrap;html=1;" vertex="1" parent="1">
          <mxGeometry x="350" y="-260" width="170" height="100" as="geometry" />
        </mxCell>
        <mxCell id="iQFdlbuYNqTvTdsV16da-36" value="&lt;div&gt;+ abrir()&lt;/div&gt;&lt;div&gt;&lt;br&gt;&lt;/div&gt;&lt;div&gt;+ salvar()&lt;/div&gt;&lt;div&gt;&lt;br&gt;&lt;/div&gt;" style="text;strokeColor=none;fillColor=none;align=left;verticalAlign=top;spacingLeft=4;spacingRight=4;overflow=hidden;rotatable=0;points=[[0,0.5],[1,0.5]];portConstraint=eastwest;whiteSpace=wrap;html=1;" vertex="1" parent="iQFdlbuYNqTvTdsV16da-35">
          <mxGeometry y="40" width="170" height="60" as="geometry" />
        </mxCell>
        <mxCell id="iQFdlbuYNqTvTdsV16da-38" value="Kit_Solar" style="swimlane;fontStyle=1;align=center;verticalAlign=top;childLayout=stackLayout;horizontal=1;startSize=26;horizontalStack=0;resizeParent=1;resizeParentMax=0;resizeLast=0;collapsible=1;marginBottom=0;whiteSpace=wrap;html=1;" vertex="1" parent="1">
          <mxGeometry x="160" y="600" width="170" height="170" as="geometry" />
        </mxCell>
        <mxCell id="iQFdlbuYNqTvTdsV16da-39" value="- id: int&lt;div&gt;- id_Item: list&lt;/div&gt;&lt;div&gt;- quantidade: int&lt;/div&gt;&lt;div&gt;- valor_kit: float&lt;/div&gt;&lt;div&gt;&lt;br&gt;&lt;/div&gt;" style="text;strokeColor=none;fillColor=none;align=left;verticalAlign=top;spacingLeft=4;spacingRight=4;overflow=hidden;rotatable=0;points=[[0,0.5],[1,0.5]];portConstraint=eastwest;whiteSpace=wrap;html=1;" vertex="1" parent="iQFdlbuYNqTvTdsV16da-38">
          <mxGeometry y="26" width="170" height="74" as="geometry" />
        </mxCell>
        <mxCell id="iQFdlbuYNqTvTdsV16da-40" value="" style="line;strokeWidth=1;fillColor=none;align=left;verticalAlign=middle;spacingTop=-1;spacingLeft=3;spacingRight=3;rotatable=0;labelPosition=right;points=[];portConstraint=eastwest;strokeColor=inherit;" vertex="1" parent="iQFdlbuYNqTvTdsV16da-38">
          <mxGeometry y="100" width="170" height="8" as="geometry" />
        </mxCell>
        <mxCell id="iQFdlbuYNqTvTdsV16da-41" value="+ Kit_Solar(id: int, id_Produto: int, quantidade: int, valor_Kit: float)" style="text;strokeColor=none;fillColor=none;align=left;verticalAlign=top;spacingLeft=4;spacingRight=4;overflow=hidden;rotatable=0;points=[[0,0.5],[1,0.5]];portConstraint=eastwest;whiteSpace=wrap;html=1;" vertex="1" parent="iQFdlbuYNqTvTdsV16da-38">
          <mxGeometry y="108" width="170" height="62" as="geometry" />
        </mxCell>
        <mxCell id="iQFdlbuYNqTvTdsV16da-42" value="&amp;lt;&amp;lt;static&amp;gt;&amp;gt;&lt;div&gt;Kit_Solares&lt;/div&gt;" style="swimlane;fontStyle=1;align=center;verticalAlign=top;childLayout=stackLayout;horizontal=1;startSize=40;horizontalStack=0;resizeParent=1;resizeParentMax=0;resizeLast=0;collapsible=1;marginBottom=0;whiteSpace=wrap;html=1;" vertex="1" parent="1">
          <mxGeometry x="110" y="-140" width="170" height="100" as="geometry" />
        </mxCell>
        <mxCell id="iQFdlbuYNqTvTdsV16da-43" value="&lt;div&gt;+ abrir()&lt;/div&gt;&lt;div&gt;&lt;br&gt;&lt;/div&gt;&lt;div&gt;+ salvar()&lt;/div&gt;&lt;div&gt;&lt;br&gt;&lt;/div&gt;" style="text;strokeColor=none;fillColor=none;align=left;verticalAlign=top;spacingLeft=4;spacingRight=4;overflow=hidden;rotatable=0;points=[[0,0.5],[1,0.5]];portConstraint=eastwest;whiteSpace=wrap;html=1;" vertex="1" parent="iQFdlbuYNqTvTdsV16da-42">
          <mxGeometry y="40" width="170" height="60" as="geometry" />
        </mxCell>
        <mxCell id="iQFdlbuYNqTvTdsV16da-44" style="rounded=0;orthogonalLoop=1;jettySize=auto;html=1;exitX=1;exitY=1;exitDx=0;exitDy=0;entryX=0;entryY=0;entryDx=0;entryDy=0;" edge="1" parent="1" source="iQFdlbuYNqTvTdsV16da-42" target="iQFdlbuYNqTvTdsV16da-11">
          <mxGeometry relative="1" as="geometry" />
        </mxCell>
      </root>
    </mxGraphModel>
  </diagram>
</mxfile>
